<?xml version="1.0" encoding="utf-8"?>
<!-- Generator: Adobe Illustrator 24.3.0, SVG Export Plug-In . SVG Version: 6.00 Build 0)  -->
<svg version="1.1" id="レイヤー_1" xmlns="http://www.w3.org/2000/svg" xmlns:xlink="http://www.w3.org/1999/xlink" x="0px"
	 y="0px" viewBox="0 0 180 63.8" style="enable-background:new 0 0 180 63.8;" xml:space="preserve">
<style type="text/css">
	.st0{enable-background:new    ;}
	.st1{fill:#E6E6E6;}
</style>
<g class="st0">
	<path class="st1" d="M46.3,15.2c-1.5,1.4-3.5,2.1-5.8,2.1c-2.4,0-4.2-0.8-5.7-2.4c-1.2-1.4-1.8-3.2-1.8-5.4c0-2.1,0.6-3.9,1.8-5.4
		c1.4-1.7,3.3-2.6,5.6-2.6c1.3,0,2.5,0.2,3.5,0.8c0.7,0.3,1.4,0.8,2.2,1.5l-1.5,1.7c-1.1-1.3-2.5-1.9-4.1-1.9
		c-1.4,0-2.6,0.5-3.5,1.6c-0.9,1.1-1.3,2.5-1.3,4.3c0,1.5,0.3,2.7,1,3.7c0.9,1.3,2.2,2,3.9,2c1.8,0,3.3-0.6,4.5-1.9L46.3,15.2z"/>
	<path class="st1" d="M55.4,1.4c1.5,0,2.9,0.4,4.1,1.2c1.3,0.8,2.2,2,2.7,3.4c0.4,1,0.6,2.1,0.6,3.3c0,2-0.5,3.8-1.6,5.2
		c-0.7,1-1.7,1.7-2.8,2.2c-0.9,0.4-1.9,0.6-3,0.6c-2.4,0-4.3-0.9-5.7-2.7c-1.1-1.4-1.7-3.2-1.7-5.3c0-1.4,0.2-2.6,0.7-3.7
		c0.9-2,2.3-3.3,4.4-3.9C53.8,1.5,54.6,1.4,55.4,1.4z M55.4,3.4c-1.1,0-2,0.3-2.8,1c-1.3,1.1-1.9,2.7-1.9,4.9c0,1.3,0.2,2.4,0.7,3.3
		c0.3,0.7,0.8,1.3,1.4,1.7c0.8,0.6,1.7,0.9,2.7,0.9c1.5,0,2.6-0.6,3.5-1.8c0.8-1.1,1.2-2.5,1.2-4.2c0-1.7-0.4-3.1-1.3-4.2
		C58,4,56.8,3.4,55.4,3.4z"/>
	<path class="st1" d="M63.8,1.8h2.7l3.3,9.1c0.4,1,0.7,2.1,1,3.2h0.1c0.2-1,0.5-2,1-3.2l3.3-9.1h2.7l-6,15.4h-2.1L63.8,1.8z"/>
	<path class="st1" d="M78.8,1.8h6.4v1.7h-1.9v11.8h1.9v1.7h-6.4v-1.7h1.9V3.5h-1.9V1.8z"/>
	<path class="st1" d="M87.8,1.8h5c2.1,0,3.9,0.4,5.2,1.3c1.1,0.7,1.9,1.7,2.4,2.9c0.4,1,0.7,2.1,0.7,3.4c0,2.1-0.6,3.8-1.8,5.2
		c-0.9,1-2,1.7-3.4,2.1c-0.9,0.2-2,0.3-3.2,0.3h-4.8V1.8z M90.2,3.8v11.1h2c1.8,0,3.1-0.3,4.1-1c1.4-1,2.1-2.5,2.1-4.6
		c0-2.2-0.8-3.8-2.3-4.7c-0.9-0.5-2.1-0.8-3.7-0.8H90.2z"/>
	<path class="st1" d="M103.4,9h6.3v1.9h-6.3V9z"/>
	<path class="st1" d="M116.5,16.9V4c-1.3,0.4-2.5,0.8-3.7,1l-0.4-1.9c1.9-0.5,3.5-1,4.8-1.6h1.8v15.4H116.5z"/>
	<path class="st1" d="M132.8,10c-0.3,0.5-0.8,0.9-1.3,1.3c-0.7,0.4-1.6,0.6-2.5,0.6c-1.4,0-2.5-0.4-3.5-1.3c-1-0.9-1.5-2.2-1.5-3.7
		c0-1.4,0.4-2.6,1.2-3.5c1.1-1.3,2.5-1.9,4.3-1.9c1.9,0,3.3,0.7,4.4,2c0.9,1.2,1.4,2.9,1.4,5.2c0,2.2-0.5,4-1.5,5.5
		c-0.8,1.1-1.9,1.9-3.3,2.5c-1,0.4-2.3,0.8-3.8,1l-1-2c2.2-0.2,3.8-0.7,4.9-1.5C131.9,13.1,132.6,11.7,132.8,10L132.8,10z
		 M129.5,3.4c-0.9,0-1.7,0.4-2.3,1.1c-0.5,0.6-0.8,1.4-0.8,2.3c0,0.9,0.2,1.6,0.7,2.2c0.6,0.7,1.3,1,2.2,1c1,0,1.9-0.4,2.5-1.2
		c0.5-0.6,0.7-1.3,0.7-2c0-0.9-0.2-1.6-0.7-2.2C131.3,3.8,130.5,3.4,129.5,3.4z"/>
</g>
<g class="st0">
	<path class="st1" d="M11.5,28.1v2.3h5.6V32h-5.7c0,0.2-0.1,0.3-0.1,0.5c1.8,0.8,3.7,1.8,5.5,3.1l-1.3,1.5c-1.6-1.2-3.2-2.3-4.8-3.1
		c-0.9,1.7-2.6,2.8-5,3.5L4.3,36c1.5-0.4,2.7-0.9,3.6-1.7c0.8-0.7,1.2-1.4,1.5-2.3H4.1v-1.5h5.5v-2.3H7.2c-0.5,0.7-1,1.4-1.5,1.9
		l-1.4-1.2c1-1,1.8-2.3,2.4-4H3.4v12.7H18v1.7H3.4v1h-2v-17h16v1.6H7l1.5,0.5c-0.2,0.4-0.3,0.8-0.4,1.1h7.7v1.6H11.5z"/>
	<path class="st1" d="M30.4,25.5c0,0.1-0.1,0.2-0.1,0.2c-0.1,0.4-0.3,0.7-0.5,1.1h7v1.4h-1.3l1.1,0.8c-0.4,0.5-0.9,0.9-1.4,1.3
		c0.6,0.3,1.2,0.6,2,1l-0.9,1.4c-0.5-0.3-1.1-0.6-1.6-0.9v4h-3.8v3.1c0,0.6-0.1,1-0.4,1.2c-0.2,0.2-0.7,0.3-1.2,0.3
		c-0.8,0-1.5,0-2-0.1l-0.4-1.7c0.8,0.2,1.4,0.2,1.9,0.2c0.2,0,0.3-0.1,0.3-0.2c0-0.1,0-0.1,0-0.2v-2.6h-4V32c-0.3,0.2-0.7,0.4-1,0.6
		l-1-1.3c0.7-0.3,1.4-0.7,2-1.2c-0.5-0.4-0.9-0.7-1.3-1l1-0.9h-1.3v-1.4H28c0.2-0.4,0.4-0.9,0.5-1.4h-5.4v6.6c0,2-0.1,3.6-0.4,4.9
		c-0.3,1.2-0.8,2.3-1.5,3.4l-1.6-1.4c1-1.3,1.6-3.1,1.7-5.3c-0.6,0.4-1.2,0.9-2,1.3l-0.4-2c0.7-0.3,1.5-0.7,2.5-1.3v-1.9L20,30.6
		c-0.3-1.7-0.7-3.2-1.1-4.3l1.5-0.9c0.3,1,0.6,2,0.8,3V24h6.5v-1.5h2.1V24h6.9v1.5H30.4z M22.8,38.7c1.2-0.7,2.3-1.6,3.2-2.8
		l1.5,0.9c-1.1,1.5-2.2,2.6-3.3,3.3L22.8,38.7z M26.2,29.3c0.4-0.3,0.7-0.7,0.9-1H25C25.4,28.6,25.8,28.9,26.2,29.3
		C26.2,29.2,26.2,29.3,26.2,29.3z M32.9,31H27v1h5.9V31z M32.9,33.3H27v1.1h5.9V33.3z M27.9,29.7h4.3c-0.5-0.5-1-1-1.3-1.5H29
		C28.7,28.8,28.3,29.3,27.9,29.7z M35.6,39.8c-1.1-1-2.4-2-3.7-2.9l1.3-1.1c1.4,0.8,2.7,1.6,3.8,2.6L35.6,39.8z M34,29.5
		c0.4-0.3,0.8-0.7,1.2-1.3h-2.6c0,0,0,0.1,0.1,0.1C33.1,28.7,33.5,29.1,34,29.5z"/>
	<path class="st1" d="M54.2,23.4v14.6c0,0.6-0.1,1.1-0.3,1.4c-0.3,0.3-0.8,0.5-1.7,0.5c-1,0-1.8,0-2.5-0.1l-0.4-2
		c1,0.1,1.8,0.2,2.4,0.2c0.3,0,0.4-0.1,0.5-0.2c0-0.1,0-0.2,0-0.3v-3.6h-4.5v5.5h-2v-5.5h-4.3c-0.1,1.3-0.2,2.3-0.4,3.2
		c-0.3,1.1-0.8,2.2-1.5,3.2l-1.7-1.4c0.7-0.9,1.2-2.1,1.4-3.4c0.1-0.8,0.2-1.6,0.2-2.6v-9.4H54.2z M41.5,25.2v2.6h4.3v-2.6H41.5z
		 M41.5,29.5v2.7h4.3v-2.7H41.5z M52.2,27.8v-2.6h-4.5v2.6H52.2z M52.2,32.2v-2.7h-4.5v2.7H52.2z"/>
	<path class="st1" d="M59,25.8v-3.3h1.9v3.3h1.7v1.8h-1.7v3c0.7-0.2,1.3-0.4,1.7-0.6l0.2,1.7c-0.8,0.3-1.4,0.6-1.9,0.8v6.1
		c0,0.6-0.1,1-0.4,1.3c-0.2,0.2-0.7,0.4-1.3,0.4c-0.7,0-1.3-0.1-1.9-0.2l-0.4-1.9c0.7,0.1,1.2,0.2,1.5,0.2c0.2,0,0.4,0,0.4-0.1
		C59,38.1,59,38,59,37.8v-4.7c-0.7,0.2-1.4,0.4-2.1,0.6l-0.5-1.9c1-0.3,1.9-0.5,2.6-0.7v-3.6h-2.3v-1.8H59z M71.5,29v8.7
		c0,0.2,0,0.4,0.1,0.5c0.1,0,0.2,0.1,0.5,0.1c0.3,0,0.5,0,0.5-0.1c0.2-0.2,0.3-1.2,0.3-3l1.7,0.8c0,0.7-0.1,1.5-0.2,2.5
		c-0.1,0.6-0.3,1-0.5,1.3c-0.4,0.3-1,0.4-2,0.4c-1,0-1.7-0.1-2-0.4c-0.2-0.2-0.3-0.6-0.3-1.3v-7.6h-3v1.8c0,2.2-0.3,3.9-0.9,5.1
		c-0.5,1.1-1.4,2-2.7,2.7l-1.3-1.4c0.8-0.5,1.4-0.9,1.8-1.4c0.8-1,1.3-2.6,1.3-4.8V29H71.5z M69.1,25.1h5.1v1.8H63v-1.8h4.1v-2.6h2
		V25.1z"/>
	<path class="st1" d="M85.7,26.6h5.7v7.2h-4.4v5c0,0.5-0.1,0.9-0.4,1.1c-0.3,0.2-0.7,0.3-1.4,0.3c-0.9,0-1.7-0.1-2.4-0.2l-0.3-1.7
		c0.8,0.1,1.4,0.2,1.7,0.2c0.3,0,0.5,0,0.6-0.1s0.1-0.2,0.1-0.4v-4.3h-4.7v-7.2h3.5c0.2-0.4,0.4-1,0.7-1.7h-5.6v4.3
		c0,2.9-0.2,5.2-0.5,6.9c-0.3,1.5-0.7,2.8-1.4,4.1l-1.6-1.4c0.6-1.2,1-2.7,1.3-4.2c0.2-1.2,0.2-2.8,0.2-4.6v-6.7h15.8v1.7h-6
		C86.3,25.4,86,26,85.7,26.6z M78.4,38.4c1.3-1.1,2.2-2.4,2.9-3.9l1.6,0.8c-0.8,1.7-1.8,3.2-3.1,4.4L78.4,38.4z M89.4,28.1h-7.2v1.4
		h7.2V28.1z M82.2,31v1.4h7.2V31H82.2z M91.6,39.6c-0.9-1.4-2-2.7-3.2-4l1.4-1.1c1.3,1.2,2.4,2.4,3.3,3.8L91.6,39.6z"/>
	<path class="st1" d="M107.2,34.8c0.5,0.8,1,1.4,1.7,1.9c0.8,0.7,1.9,1.3,3.2,1.7l-1.1,1.8c-2.3-0.9-3.9-2.5-5-4.8
		c-0.4,1.2-1,2.2-1.9,3c-0.8,0.8-1.8,1.4-3.1,2l-1.3-1.6c1.5-0.5,2.6-1.1,3.4-1.9c0.7-0.7,1.1-1.4,1.5-2.2H101v-4.9h3.9v-1.5h-2
		v-0.8c-0.7,0.6-1.4,1.1-2.2,1.5l-0.7-1h-1.5v1.6c0.8,0.7,1.6,1.4,2.3,2.2l-1,1.7c-0.4-0.6-0.9-1.3-1.3-1.8v8.6h-1.9v-8.2
		c-0.6,1.7-1.2,3.2-1.9,4.4l-0.8-2.1c1.1-1.9,2-4,2.6-6.3h-2.3v-1.8h2.4v-3.8h1.9v3.8h1.6v1.1c1.9-1.1,3.4-2.8,4.5-4.8h2.1
		c0.9,1.4,2.1,2.6,3.5,3.6c0.6,0.4,1.3,0.8,2.1,1.2l-1.1,1.6c-0.8-0.5-1.6-1-2.4-1.5v0.9h-2v1.5h4v4.9H107.2z M104.9,31.3h-2.1v2
		h2.1V31.3z M103.7,26.7h4.3c-0.9-0.8-1.6-1.6-2.4-2.7C105.1,25,104.4,25.9,103.7,26.7z M106.7,31.3v2h2.2v-2H106.7z"/>
	<path class="st1" d="M122.7,30.4h5v7.9h3v1.6h-17.8v-1.6h3v-7.9c-0.7,0.3-1.3,0.6-1.9,0.9l-1.1-1.5c2.6-0.9,4.7-2.2,6.3-3.9h-5.7
		v-1.6h7.3v-1.9h2v1.9h7.4V26h-5.6c0,0,0.1,0.1,0.1,0.1c1.5,1.3,3.5,2.4,6.1,3.3l-1.1,1.5c-2.9-1.2-5.2-2.8-6.9-4.7V30.4z
		 M120.7,30.4v-4.1c-1.2,1.7-2.8,3-4.7,4.1H120.7z M117.8,31.7V33h7.9v-1.3H117.8z M117.8,34.3v1.3h7.9v-1.3H117.8z M117.8,37v1.3
		h7.9V37H117.8z"/>
	<path class="st1" d="M140.2,22.9l0.5,3.3l6.3-0.4l0.1,1.9l-6.1,0.4l0.6,3.7l6.7-0.5l0.1,1.9l-6.5,0.5l1,5.8l-2.2,0.3l-1-5.9
		l-7.6,0.6l-0.1-1.9l7.4-0.5l-0.6-3.7l-5.9,0.4l-0.1-1.9l5.8-0.4l-0.5-3.2L140.2,22.9z"/>
	<path class="st1" d="M152.4,33c-0.4-1.9-1-3.6-1.8-5.2l1.7-0.9c0.8,1.6,1.4,3.4,1.9,5.3L152.4,33z M153.8,37.9
		c2-0.5,3.6-1.3,4.7-2.2c1.1-0.9,1.9-2.2,2.5-4c0.4-1.4,0.8-3.1,1-5.3l1.9,0.6c-0.4,2.9-0.9,5.1-1.5,6.6c-0.8,1.9-2,3.3-3.6,4.3
		c-1,0.6-2.3,1.2-3.9,1.7L153.8,37.9z M156.6,32.2c-0.3-1.5-0.9-3.2-1.7-5.2l1.8-0.8c0.7,1.5,1.3,3.3,1.8,5.2L156.6,32.2z"/>
	<path class="st1" d="M168,23h2.1v5.2c3.6,1.1,6.7,2.3,9,3.4l-1,2c-2.3-1.2-5-2.3-8-3.3v9.3H168V23z"/>
</g>
<g class="st0">
	<path class="st1" d="M33.5,47.4h7.1l0.9,0.9c-0.2,1.9-0.6,3.4-1,4.8c-0.4,1.5-1,2.9-1.8,4.3c1,1.5,2.1,2.7,3.3,3.7l-1.2,2.1
		c-1.3-1.1-2.4-2.5-3.3-4c-0.7,1-1.4,1.9-2,2.5c-0.6,0.6-1.3,1.2-2,1.6l-1.3-1.8c1.6-0.9,3-2.3,4.2-4.2c0,0,0-0.1-0.1-0.1
		c-0.7-1.4-1.3-3.1-1.7-5.1c-0.2-1.1-0.4-2-0.5-2.8h-1.1v-1.1h-0.9v15.3h-1.9v-3.7l-0.6,0.1c-1.8,0.5-3.6,0.9-5.3,1.2L24,59
		c0.8-0.1,1.4-0.2,1.7-0.2V48.1h-1.3v-1.8h9.2V47.4z M30.4,48.1h-2.9v2.2h2.9V48.1z M30.4,51.9h-2.9v2.2h2.9V51.9z M30.4,55.6h-2.9
		v2.9c0.3-0.1,0.6-0.1,0.7-0.1c0.5-0.1,1.2-0.2,2.2-0.4V55.6z M36,49.3c0.2,2.3,0.8,4.3,1.6,6.1c0.9-1.8,1.5-3.8,1.8-6.1H36z"/>
	<path class="st1" d="M45.2,49.1v-3.5h1.9v3.5H49v1.8h-1.9v2.9c0.7-0.2,1.2-0.4,1.7-0.6l0.2,1.7c-0.6,0.2-1.2,0.5-1.9,0.8v5.9
		c0,0.6-0.1,1-0.3,1.3c-0.2,0.3-0.7,0.4-1.4,0.4c-0.7,0-1.3-0.1-1.9-0.2l-0.4-2c0.7,0.1,1.3,0.2,1.6,0.2c0.2,0,0.4,0,0.4-0.1
		c0.1-0.1,0.1-0.2,0.1-0.4v-4.5c-0.6,0.2-1.3,0.4-2.1,0.6l-0.5-1.9c1.1-0.3,1.9-0.5,2.5-0.6c0,0,0.1,0,0.1,0v-3.5h-2.4v-1.8H45.2z
		 M52.2,53.4c-0.2,1.6-0.4,2.8-0.6,3.7c-0.7,2.5-1.7,4.6-3.1,6.2l-1.2-1.7c1.4-1.4,2.3-3.6,2.9-6.4c0.3-1.5,0.5-3.8,0.6-6.9h-1.9
		v-1.8h8.4l0.9,0.8c-0.3,1.5-0.7,3-1.2,4.6h2.8c-0.5,2.6-1.3,4.8-2.6,6.7c1,1,2.3,1.9,3.8,2.7l-1.2,1.8c-1.4-0.8-2.6-1.8-3.8-3
		c-1.1,1.3-2.5,2.4-4.2,3.3l-1.3-1.6c1.8-0.9,3.2-1.9,4.3-3.2C53.8,57.4,52.9,55.6,52.2,53.4z M52.5,48.8c0.2,1.5,0.7,3.1,1.4,4.7
		c0.5,1.3,1.2,2.5,2,3.6c0.6-1.1,1.1-2.2,1.5-3.5h-2.9c0.7-1.7,1.2-3.5,1.6-5.3h-3.5v0.2v0.1V48.8z"/>
	<path class="st1" d="M69.3,56h-2.8v-6.2h2.7c0.1-0.4,0.2-0.8,0.3-1.2l1.9,0.3c-0.1,0.3-0.2,0.5-0.3,0.8L71,49.9h3.3V56h-3v1h8v1.5
		h-5.9l0.1,0.1c1.5,0.9,3.5,1.7,6,2.5l-1.2,1.7c-3-1.1-5.3-2.4-7-3.9v4.5h-2v-4.5c-1.6,1.8-3.9,3.2-6.8,4.1l-1.1-1.6
		c2.6-0.7,4.7-1.7,6.2-2.9h-6.1V57h7.8V56z M61.7,55c1.4-0.5,2.7-1.2,3.9-2l0.5,1.4c-1.3,0.9-2.6,1.6-3.7,2.2L61.7,55z M66.2,46.8
		v-1.3h2v1.3h4.2v-1.3h2v1.3h4.5v1.5h-4.5v1h-2v-1h-4.2v1h-2v-1h-4.3v-1.5H66.2z M64.8,52.6c-0.9-1-1.8-1.7-2.6-2.3l1.2-1.3
		c0.8,0.5,1.8,1.2,2.7,2.2L64.8,52.6z M68.3,51.1v1.2h4.1v-1.2H68.3z M68.3,53.5v1.3h4.1v-1.3H68.3z M74.5,51.2c1-0.7,2-1.4,2.8-2.3
		l1.3,1.2c-0.9,0.8-2,1.6-3.1,2.3L74.5,51.2z M78.2,56.4c-1-0.7-2.2-1.5-3.6-2.2l0.9-1.3c1.1,0.5,2.4,1.1,3.7,2L78.2,56.4z"/>
	<path class="st1" d="M96.1,46.3v4.8h-12v1.8h13.5c0,3.6-0.2,6.3-0.5,8.2c-0.1,0.9-0.4,1.5-0.7,1.8c-0.4,0.3-1,0.5-2,0.5
		c-0.9,0-1.9-0.1-3-0.2l-0.3-1.7c1.1,0.1,2.1,0.2,3,0.2c0.4,0,0.7-0.1,0.9-0.3c0.1-0.1,0.1-0.4,0.2-0.7c0.3-1.6,0.4-3.6,0.5-5.9
		c0-0.1,0-0.2,0-0.3H84.1c0,1.8-0.2,3.2-0.4,4.4c-0.3,1.5-0.9,2.9-1.7,4.2l-1.7-1.4c0.9-1.3,1.4-2.8,1.6-4.5c0.1-0.8,0.2-1.8,0.2-3
		v-7.9H96.1z M94,47.9h-9.9v1.7H94V47.9z M93.3,55.8v4.8h-6.2v1.3h-1.9v-6.1H93.3z M87.1,57.3v1.8h4.3v-1.8H87.1z"/>
	<path class="st1" d="M99.4,47.7h14.3L115,49c-0.9,2-2.1,3.8-3.4,5.4c-1,1.2-2.2,2.3-3.5,3.3c1,1.1,1.9,2.1,2.5,2.9l-1.7,1.5
		c-2.1-2.8-4.8-5.6-8.1-8.2l1.4-1.4c1.4,1.1,2.8,2.4,4.4,3.9c1.7-1.3,3.1-2.7,4.2-4.3c0.5-0.8,1-1.6,1.4-2.4h-13V47.7z"/>
	<path class="st1" d="M119,56.1c-0.4-1.9-1-3.6-1.8-5.2l1.7-0.9c0.8,1.6,1.4,3.4,1.9,5.3L119,56.1z M120.4,61c2-0.5,3.6-1.3,4.7-2.2
		c1.1-0.9,1.9-2.2,2.5-4c0.4-1.4,0.8-3.1,1-5.3l1.9,0.6c-0.4,2.9-0.9,5.1-1.5,6.6c-0.8,1.9-2,3.3-3.6,4.3c-1,0.6-2.3,1.2-3.9,1.7
		L120.4,61z M123.2,55.3c-0.3-1.5-0.9-3.2-1.7-5.2l1.8-0.8c0.7,1.5,1.3,3.3,1.8,5.2L123.2,55.3z"/>
	<path class="st1" d="M133.1,48.4h11.7l2.3,2.1c-0.2,2.7-0.8,4.8-1.6,6.3c-1,1.8-2.4,3.2-4.4,4.2c-1.2,0.6-2.9,1.2-5,1.7l-1.1-1.9
		c2-0.4,3.6-0.9,4.8-1.4c1.9-1,3.3-2.4,4.1-4.4c0.5-1.2,0.8-2.8,0.9-4.7h-11.8V48.4z M148,45.2c0.4,0,0.8,0.1,1.2,0.3
		c0.4,0.2,0.6,0.5,0.9,0.9c0.2,0.3,0.3,0.7,0.3,1.1c0,0.6-0.2,1.1-0.6,1.6c-0.5,0.5-1,0.7-1.7,0.7c-0.3,0-0.6-0.1-1-0.2
		c-0.4-0.2-0.7-0.4-0.9-0.8c-0.3-0.4-0.4-0.8-0.4-1.3c0-0.4,0.1-0.7,0.3-1.1c0.2-0.3,0.4-0.6,0.8-0.8
		C147.1,45.3,147.6,45.2,148,45.2z M148,46.3c-0.2,0-0.4,0.1-0.6,0.2c-0.4,0.2-0.5,0.6-0.5,1c0,0.3,0.1,0.6,0.3,0.8
		c0.2,0.2,0.5,0.4,0.9,0.4c0.2,0,0.4,0,0.5-0.1c0.4-0.2,0.6-0.6,0.6-1c0-0.3-0.1-0.6-0.4-0.9C148.6,46.4,148.3,46.3,148,46.3z"/>
</g>
</svg>
